<svg xmlns="http://www.w3.org/2000/svg" width="964" height="192" fill="none"><path fill="#1C1C1C" fill-rule="evenodd" d="M93.074 24.265c-2.787 3.805-5.624 8.044-7.562 11.08l-2.192 3.434-3.99.551c-35.45 4.897-61.768 33.506-61.768 67.04 0 36.816 31.81 67.77 72.445 67.77 40.634 0 72.444-30.954 72.444-67.77a63.753 63.753 0 0 0-5.637-26.252l15.97-7.43a81.865 81.865 0 0 1 7.229 33.682c0 47.904-40.922 85.63-90.007 85.63C40.922 192 0 154.274 0 106.37c0-42.218 31.85-76.585 72.96-84.095 2.3-3.47 5.15-7.583 7.877-11.15 1.81-2.367 3.755-4.746 5.562-6.556.87-.872 2.012-1.922 3.316-2.763A11.686 11.686 0 0 1 92.6.44c1.215-.373 3.302-.764 5.7-.01 3.135.986 4.917 3.237 5.669 4.304.879 1.246 1.51 2.569 1.945 3.576.677 1.565 1.347 3.506 1.889 5.077l.376 1.085c.495 1.408.902 2.476 1.256 3.266 6.802 1.518 17.698 4.306 25.109 6.201l1.553.397c2.284-1.532 4.974-3.174 7.666-4.511 2.096-1.042 4.583-2.098 7.099-2.658 2.083-.464 6.461-1.126 10.439 1.55l3.347 2.25.517 4.047c2.636 20.608-3.401 44.302-16.167 59.792-6.49 7.876-15.072 14.025-25.513 16-10.546 1.994-21.827-.491-33.178-7.738l9.337-15.127c8.365 5.34 15.216 6.33 20.63 5.306 5.519-1.044 10.725-4.405 15.264-9.913 7.344-8.911 11.999-22.372 12.608-35.61a63.432 63.432 0 0 0-5.069 3.43l-3.326 2.512-4.021-1.012c-1.545-.39-3.563-.905-5.854-1.491-8.381-2.143-20.414-5.22-26.307-6.433-5.247-1.08-7.929-5.432-8.955-7.264a31.78 31.78 0 0 1-1.54-3.202Zm61.682 10.324Zm-44.615-15.551c-.001.008-.051-.05-.144-.201a.902.902 0 0 1 .144.2Z" clip-rule="evenodd"/><path fill="#1C1C1C" d="M937.702 162.438c-5.19 0-9.342-1.557-12.457-4.67-2.999-3.113-4.498-7.264-4.498-12.452V92.219h-23.53V77.173h23.53V48.98h17.82v28.191H964V92.22h-25.433v49.984c0 3.459 1.615 5.188 4.845 5.188h17.82v15.047h-23.53Zm-99.476 2.421c-6.113 0-11.592-1.037-16.436-3.113-4.729-2.075-8.536-5.131-11.419-9.166-2.768-4.036-4.152-8.936-4.152-14.701 0-5.881 1.384-10.723 4.152-14.528 2.883-3.921 6.747-6.861 11.592-8.821 4.959-1.96 10.553-2.94 16.782-2.94h25.951v-5.535c0-4.957-1.499-8.935-4.498-11.933-2.999-2.998-7.612-4.497-13.841-4.497-6.113 0-10.784 1.441-14.014 4.324-3.229 2.882-5.363 6.63-6.401 11.242l-16.609-5.362c1.384-4.612 3.575-8.763 6.574-12.452 3.114-3.805 7.209-6.86 12.284-9.167 5.075-2.306 11.188-3.459 18.339-3.459 11.073 0 19.781 2.825 26.125 8.475 6.344 5.65 9.516 13.663 9.516 24.04v35.109c0 3.459 1.614 5.189 4.844 5.189h7.267v14.874H880.96c-4.037 0-7.325-1.038-9.862-3.113-2.538-2.076-3.806-4.901-3.806-8.475v-.519h-2.596c-.922 1.73-2.306 3.748-4.152 6.054-1.845 2.306-4.556 4.323-8.131 6.053-3.576 1.614-8.305 2.421-14.187 2.421Zm2.595-14.701c7.151 0 12.918-2.017 17.301-6.053 4.383-4.151 6.574-9.801 6.574-16.949v-1.73h-24.913c-4.729 0-8.535 1.038-11.419 3.113-2.884 1.96-4.325 4.901-4.325 8.821s1.499 7.033 4.498 9.339 7.093 3.459 12.284 3.459Zm-91.834 14.701c-8.189 0-15.629-1.729-22.319-5.188-6.574-3.459-11.822-8.475-15.744-15.047-3.806-6.572-5.709-14.471-5.709-23.695v-2.248c0-9.224 1.903-17.065 5.709-23.522 3.922-6.572 9.17-11.587 15.744-15.046 6.69-3.575 14.13-5.362 22.319-5.362 8.189 0 15.167 1.5 20.934 4.497 5.767 2.998 10.381 6.976 13.841 11.934 3.576 4.958 5.883 10.434 6.921 16.43l-17.302 3.632c-.576-3.805-1.787-7.264-3.633-10.377-1.845-3.113-4.44-5.592-7.785-7.437-3.345-1.845-7.555-2.767-12.63-2.767-4.96 0-9.458 1.153-13.495 3.459-3.922 2.19-7.036 5.419-9.343 9.685-2.307 4.151-3.46 9.224-3.46 15.22v1.556c0 5.996 1.153 11.127 3.46 15.393s5.421 7.495 9.343 9.686c4.037 2.19 8.535 3.286 13.495 3.286 7.497 0 13.206-1.903 17.128-5.708 3.922-3.92 6.401-8.878 7.439-14.874l17.302 3.978c-1.384 5.881-3.864 11.3-7.44 16.258-3.46 4.958-8.074 8.936-13.841 11.933-5.767 2.883-12.745 4.324-20.934 4.324Zm-101.555 0c-8.651 0-16.206-1.787-22.665-5.361-6.459-3.69-11.534-8.821-15.225-15.393-3.576-6.688-5.363-14.413-5.363-23.176v-2.075c0-8.878 1.787-16.603 5.363-23.176 3.576-6.687 8.535-11.818 14.879-15.392 6.459-3.69 13.899-5.535 22.319-5.535 8.189 0 15.34 1.845 21.453 5.535 6.228 3.574 11.073 8.59 14.533 15.046 3.46 6.457 5.19 14.01 5.19 22.657v6.745h-65.571c.231 7.495 2.71 13.491 7.439 17.987 4.845 4.382 10.842 6.573 17.994 6.573 6.689 0 11.707-1.499 15.052-4.497 3.46-2.998 6.113-6.457 7.958-10.377l14.706 7.61c-1.615 3.228-3.979 6.629-7.093 10.204-2.999 3.574-6.978 6.572-11.938 8.993-4.96 2.422-11.304 3.632-19.031 3.632Zm-24.914-53.788h47.232c-.461-6.457-2.768-11.472-6.92-15.047-4.153-3.69-9.574-5.534-16.263-5.534-6.69 0-12.169 1.845-16.437 5.534-4.152 3.575-6.689 8.59-7.612 15.047Zm-76.955 53.788c-8.19 0-15.629-1.729-22.319-5.188-6.574-3.459-11.822-8.475-15.744-15.047-3.806-6.572-5.709-14.471-5.709-23.695v-2.248c0-9.224 1.903-17.065 5.709-23.522 3.922-6.572 9.17-11.587 15.744-15.046 6.69-3.575 14.129-5.362 22.319-5.362 8.189 0 15.167 1.5 20.934 4.497 5.767 2.998 10.381 6.976 13.841 11.934 3.576 4.958 5.882 10.434 6.92 16.43l-17.301 3.632c-.576-3.805-1.787-7.264-3.633-10.377-1.845-3.113-4.441-5.592-7.785-7.437-3.345-1.845-7.555-2.767-12.63-2.767-4.96 0-9.458 1.153-13.495 3.459-3.922 2.19-7.036 5.419-9.343 9.685-2.307 4.151-3.46 9.224-3.46 15.22v1.556c0 5.996 1.153 11.127 3.46 15.393s5.421 7.495 9.343 9.686c4.037 2.19 8.535 3.286 13.495 3.286 7.497 0 13.206-1.903 17.128-5.708 3.921-3.92 6.401-8.878 7.439-14.874l17.302 3.978c-1.385 5.881-3.864 11.3-7.44 16.258-3.46 4.958-8.074 8.936-13.841 11.933-5.767 2.883-12.745 4.324-20.934 4.324Zm-110.975 0c-6.113 0-11.592-1.037-16.436-3.113-4.729-2.075-8.536-5.131-11.419-9.166-2.768-4.036-4.153-8.936-4.153-14.701 0-5.881 1.385-10.723 4.153-14.528 2.883-3.921 6.747-6.861 11.592-8.821 4.959-1.96 10.553-2.94 16.782-2.94h25.951v-5.535c0-4.957-1.499-8.935-4.498-11.933-2.999-2.998-7.612-4.497-13.841-4.497-6.113 0-10.784 1.441-14.014 4.324-3.229 2.882-5.363 6.63-6.401 11.242l-16.609-5.362c1.384-4.612 3.575-8.763 6.574-12.452 3.114-3.805 7.209-6.86 12.284-9.167 5.075-2.306 11.188-3.459 18.339-3.459 11.073 0 19.781 2.825 26.125 8.475 6.344 5.65 9.516 13.663 9.516 24.04v35.109c0 3.459 1.614 5.189 4.844 5.189h7.266v14.874h-13.321c-4.037 0-7.325-1.038-9.862-3.113-2.538-2.076-3.806-4.901-3.806-8.475v-.519h-2.596c-.922 1.73-2.306 3.748-4.152 6.054-1.845 2.306-4.556 4.323-8.131 6.053-3.576 1.614-8.305 2.421-14.187 2.421Zm2.595-14.701c7.151 0 12.918-2.017 17.301-6.053 4.383-4.151 6.574-9.801 6.574-16.949v-1.73h-24.913c-4.729 0-8.536 1.038-11.419 3.113-2.884 1.96-4.325 4.901-4.325 8.821s1.499 7.033 4.498 9.339 7.093 3.459 12.284 3.459Zm-93.608 12.28V77.173h17.475v10.03h2.768c1.384-3.574 3.575-6.168 6.574-7.782 3.114-1.73 6.921-2.594 11.419-2.594h10.208V92.91h-10.9c-5.767 0-10.496 1.614-14.187 4.843-3.691 3.113-5.536 7.956-5.536 14.528v50.156h-17.821Zm-60.835 0V58.321h-37.198V41.37h93.081v16.95h-37.198v104.117H282.74Z"/></svg>